# xmcd
# 
# Track frame offsets:
#     150
#     14697
#     33337
#     47375
#     59165
#     76815
#     92707
#     108005
#     122285
#     141800
#     159860
#     172952
#     187567
#     202987
#     218217
#     234517
#     248532
#     266517
#     283782
#     301192
# 
# Disc length: 4213
# 
# Revision: 7
# Processed by: cddbd v1.5.2PL0 Copyright (c) Steve Scherf et al.
# Submitted via: BonkEnc v1.0beta3
# 
DISCID=f7107314
DTITLE=Earl Thomas Conley - The Essential Earl Thomas Conley
DYEAR=1996
DGENRE=Country
TTITLE0=Fire And Smoke
TTITLE1=Somewhere Between Right And Wrong
TTITLE2=Heavenly Bodies
TTITLE3=I Have Loved You Girl (But Not Like This Before)
TTITLE4=Angel In Disguise
TTITLE5=Don't Make It Easy For Me
TTITLE6=Your Love's On The Line
TTITLE7=Holding Her And Loving You
TTITLE8=That Was A Close One
TTITLE9=I Can't Win For Losin' You
TTITLE10=Chance Of Lovin' You
TTITLE11=Honor Bound
TTITLE12=Love Don't Care (Whose Heart It Breaks)
TTITLE13=Nobody Falls Like A Fool
TTITLE14=Once In A Blue Moon
TTITLE15=Right From The Start
TTITLE16=What She Is (Is A Woman In Love)
TTITLE17=Love Out Loud
TTITLE18=What I'd Say
TTITLE19=Brotherly Love
EXTD=BMG Music
EXTT0=
EXTT1=
EXTT2=
EXTT3=
EXTT4=
EXTT5=
EXTT6=
EXTT7=
EXTT8=
EXTT9=
EXTT10=
EXTT11=
EXTT12=
EXTT13=
EXTT14=
EXTT15=
EXTT16=
EXTT17=
EXTT18=
EXTT19=
PLAYORDER=
